<?xml version="1.0" encoding="iso-8859-1"?>
<svg version="1.1" id="Capa_1" xmlns="http://www.w3.org/2000/svg" xmlns:xlink="http://www.w3.org/1999/xlink" x="0px" y="0px"
	 viewBox="0 0 494 494" style="enable-background:new 0 0 494 494;" xml:space="preserve">
<path d="M472,140h-82l-23-84c-3-9-11-16-21-16H148c-10,0-18,7-21,16l-23,84H21c-12,0-21,10-21,22v270
	c0,12,9,22,21,22h451c12,0,22-10,22-22V162C494,150,484,140,472,140z M451,410H43V183h77c10,0,18-7,21-16l23-83h165l23,83
	c3,9,11,16,21,16h78V410z"/>
<path d="M247,146c-68,0-124,55-124,123s56,124,124,124s123-56,123-124S315,146,247,146z M247,349
	c-44,0-80-36-80-80s36-80,80-80s80,36,80,80S291,349,247,349z"/>
<path d="M269,209c-11-5-24,0-29,11s1,24,12,29c0,0,17,7,15,20s7,25,21,25c11,0,21-8,22-19
	C315,239,286,217,269,209z"/>
<path d="M250,291c-12,0-22,9-22,21s10,22,22,22s22-10,22-22S262,291,250,291z"/>
</svg>
