<?xml version="1.0" encoding="iso-8859-1"?>
<svg version="1.1" id="Capa_1" xmlns="http://www.w3.org/2000/svg" xmlns:xlink="http://www.w3.org/1999/xlink" x="0px" y="0px"
	 viewBox="0 0 494 494" style="enable-background:new 0 0 494 494;" xml:space="preserve">
<path d="M367.855,40c-31-22-141-40-196-40c-29,0-40,5-46,8c-25,14-58,93-82,160c-28,21-41,48-37,75
	c4,26,23,48,52,57c15,5,41,11,62,16c-39,56-46,113-32,146c9,20,26,32,47,32c45,0,52-41,62-69c7-21,42-59,94-88c39-22,75-51,77-52
	c5-4,9-10,9-17V58C377.855,51,373.855,44,367.855,40z M333.855,257c-13,10-38,28-63,42c-56,32-103,76-115,112c-1,4-3,8-4,12
	c-9,27-10,28-16,28c-2,0-4-1-7-7c-9-21-1-74,47-126c12-13,4-33-11-36c-1,0-66-16-93-24c-13-4-21-12-22-21c-2-12,7-25,24-37
	c4-3,7-7,9-11c22-60,53-132,65-144c2-1,8-2,24-2c52,0,132,16,162,28V257z"/>
<path d="M452.855,21c-20,0-36,15-36,35v214c0,20,16,36,36,36s35-16,35-36V56
	C487.855,36,472.855,21,452.855,21z"/>
</svg>
