<?xml version="1.0" encoding="iso-8859-1"?>
<svg version="1.1" id="Capa_1" xmlns="http://www.w3.org/2000/svg" xmlns:xlink="http://www.w3.org/1999/xlink" x="0px" y="0px"
	 viewBox="0 0 494 494" style="enable-background:new 0 0 494 494;" xml:space="preserve">
<path d="M472,33H21C9,33,0,43,0,55v272c0,12,9,22,21,22h255v90c0,11,9,22,22,22c6,0,12-3,16-8l89-104h69
	c12,0,22-10,22-22V55C494,43,484,33,472,33z M451,306h-58c-6,0-13,2-17,7l-57,67v-53c0-12-9-21-21-21H43V76h408V306z"/>
<path d="M121,174h156c12,0,22-10,22-22s-10-22-22-22H121c-12,0-21,10-21,22S109,174,121,174z"/>
<path d="M351,174c12,0,22-10,22-22s-10-22-22-22s-22,10-22,22S339,174,351,174z"/>
</svg>
